<?xml version="1.0" encoding="UTF-8" standalone="no"?>
<svg
   width="15"
   height="15"
   viewBox="0 0 15 15"
   fill="none"
   version="1.1"
   id="svg8"
   sodipodi:docname="mastodon.svg"
   xml:space="preserve"
   inkscape:version="1.2.2 (b0a8486541, 2022-12-01)"
   xmlns:inkscape="http://www.inkscape.org/namespaces/inkscape"
   xmlns:sodipodi="http://sodipodi.sourceforge.net/DTD/sodipodi-0.dtd"
   xmlns="http://www.w3.org/2000/svg"
   xmlns:svg="http://www.w3.org/2000/svg"><defs
     id="defs12" /><sodipodi:namedview
     id="namedview10"
     pagecolor="#ffffff"
     bordercolor="#666666"
     borderopacity="1.0"
     inkscape:showpageshadow="2"
     inkscape:pageopacity="0.0"
     inkscape:pagecheckerboard="0"
     inkscape:deskcolor="#d1d1d1"
     showgrid="false"
     inkscape:zoom="4.3875"
     inkscape:cx="1.5954416"
     inkscape:cy="37.606838"
     inkscape:window-width="1720"
     inkscape:window-height="1365"
     inkscape:window-x="1720"
     inkscape:window-y="0"
     inkscape:window-maximized="0"
     inkscape:current-layer="svg8" /><path
     d="m 6.6328351,14.993035 c -0.1077972,-0.0022 -0.1696223,-0.0078 -0.1652411,-0.01489 0.00424,-0.0069 -0.020534,-0.0113 -0.062839,-0.0113 -0.2579579,0 -0.9225438,-0.07988 -1.4161441,-0.170245 C 4.2124757,14.654522 3.6595116,14.491843 3.2419986,14.282724 1.8316397,13.57633 1.022644,12.142489 0.70444532,9.785226 0.62369128,9.1869914 0.54860009,8.1495894 0.54557891,7.5904839 c -4.11e-4,-0.083344 -0.00486,-0.141288 -0.009725,-0.1287701 -0.0150589,0.038492 -0.0241419,-1.0800079 -0.0163299,-2.0106929 0.004079,-0.4858387 0.0117646,-0.8765654 0.0169732,-0.8682829 0.005494,0.00878 0.009569,-0.017272 0.009725,-0.061898 C 0.54649479,4.4204148 0.57596337,4.1266603 0.60575256,3.9282718 0.79372966,2.6761577 1.3764369,1.6335933 2.2573143,0.97334941 2.5021332,0.78985048 2.7295558,0.67698003 3.1079545,0.55117604 3.8122618,0.31701927 4.7182142,0.15986107 5.8566025,0.07436348 6.1260632,0.05412797 6.6365688,0.02755502 6.7562942,0.02752365 c 0.062822,-1.099e-5 0.11139,-0.0045532 0.1079383,-0.01019662 -0.00344,-0.0056426 0.1398458,-0.01239218 0.3224342,-0.01505889 0.4320188,-0.00659228 0.9935964,0.00203911 0.9733195,0.01490246 -0.00957,0.0059591 0.028893,0.01003927 0.095986,0.01019662 0.35024,5.6165e-4 1.1599964,0.05888731 1.7104763,0.12320162 1.1288405,0.13189198 2.0873435,0.37915166 2.5591395,0.66017963 0.661273,0.39388913 1.254295,1.12221873 1.580825,1.94151573 0.152692,0.3831157 0.285031,0.9022911 0.332432,1.3041364 0.008,0.067247 0.02012,0.1259938 0.02704,0.1305743 0.0087,0.00581 0.0138,0.2914783 0.01652,0.954814 0.0037,0.9169595 -0.0037,1.4464535 -0.02035,1.4361868 -0.0044,-0.00266 -0.01427,0.1086603 -0.02186,0.2475429 -0.04605,0.8433901 -0.16484,1.85151 -0.264363,2.2436613 -0.118777,0.4679947 -0.54152,0.9823421 -1.156643,1.4072551 -0.657802,0.454394 -1.522725,0.790379 -2.354126,0.914477 -0.526878,0.07863 -1.4877049,0.171555 -2.072644,0.200427 -0.3023287,0.01489 -1.0829228,0.0078 -1.3623572,-0.01239 C 6.5539666,11.530069 5.9752437,11.46243 5.3728342,11.361863 5.1368374,11.322483 4.6513392,11.228512 4.559771,11.204505 c -0.074558,-0.01954 -0.081742,-0.005 -0.072769,0.146513 0.03233,0.545563 0.1367704,0.912778 0.3524705,1.239272 0.089899,0.136064 0.2935208,0.33809 0.4343823,0.43096 0.5124333,0.337849 1.2164974,0.47187 2.4801855,0.472111 0.3774183,1.16e-4 0.5291246,-0.0044 0.6928235,-0.02063 0.5434377,-0.05369 1.0141888,-0.135892 1.4835631,-0.259031 0.085886,-0.02253 0.1597091,-0.03682 0.1640691,-0.03175 0.01192,0.01381 0.06092,1.181494 0.05009,1.191623 -0.01459,0.01365 -0.2459686,0.111893 -0.3725051,0.158209 -0.4492193,0.164433 -1.0149756,0.299828 -1.5487036,0.370629 -0.2620106,0.03476 -0.5735285,0.06447 -0.6759695,0.06447 -0.040801,0 -0.071472,0.0044 -0.068129,0.0098 0.00643,0.01035 -0.4198948,0.02694 -0.5800351,0.02256 -0.051798,-0.0014 -0.1716945,-0.0042 -0.2664277,-0.0061 z M 4.5961984,9.1191611 c 0.010823,-0.01082 0.013961,-0.4734319 0.013961,-2.0115133 2.35e-5,-1.3781825 0.00408,-2.0300327 0.012864,-2.1023363 0.019891,-0.1631222 0.063671,-0.3145313 0.1296174,-0.4481801 0.096252,-0.1951022 0.2503342,-0.3334867 0.4477391,-0.4021371 0.2489759,-0.08659 0.5962808,-0.08386 0.8450558,0.00659 0.350734,0.1275939 0.5561015,0.4242048 0.6450116,0.9315998 0.016881,0.096362 0.019842,0.259128 0.023846,1.3113051 0.00373,0.9735636 0.00754,1.2036891 0.019861,1.2139779 0.01082,0.00894 0.2433399,0.01176 0.7883352,0.00972 l 0.7730343,-0.00298 0.00689,-1.187695 c 0.00484,-0.8308643 0.011136,-1.2156818 0.020866,-1.2808466 0.06096,-0.4066015 0.1868475,-0.6795447 0.3900238,-0.8456049 0.092832,-0.075876 0.254286,-0.1541981 0.3856586,-0.1870958 0.090569,-0.022683 0.1340254,-0.026149 0.3202126,-0.025569 0.1826974,5.742e-4 0.2295641,0.00455 0.3085671,0.025789 0.3339841,0.090072 0.5425561,0.3135697 0.6332541,0.6785596 0.05331,0.2145282 0.05204,0.1653385 0.05887,2.2926494 l 0.0066,2.0318889 0.780154,0.00298 c 0.723098,0.00279 0.781216,0.00159 0.794708,-0.016788 0.01823,-0.024814 0.02085,-3.7911614 0.0028,-4.1469215 C 11.973964,4.3688544 11.833168,3.8834723 11.5763,3.4915048 11.280107,3.0395335 10.842227,2.7248721 10.329565,2.5956013 10.119029,2.5425185 9.9687228,2.5259066 9.6986543,2.5259066 c -0.4416139,0 -0.7451204,0.068425 -1.0805698,0.2436063 C 8.448784,2.857922 8.3275791,2.9477741 8.1781746,3.0956035 8.0083312,3.2636571 7.940454,3.3578592 7.7104225,3.7447599 7.6047588,3.9224767 7.515034,4.0677571 7.5110302,4.0676033 7.5069519,4.0674528 7.4173667,3.9220486 7.3117795,3.7444807 7.0850636,3.3632067 6.9974078,3.2427895 6.8260941,3.0772798 6.4624661,2.7259701 6.010024,2.5469136 5.4252822,2.5228992 5.1325066,2.5108206 4.799594,2.5541153 4.5513899,2.6364065 4.2103157,2.7494746 3.8657261,2.9780033 3.6305653,3.2470672 3.3781463,3.5358804 3.1783978,3.9522874 3.091319,4.3712137 3.017984,4.7240104 3.022487,4.5661417 3.018204,6.9376396 c -0.0022,1.1909066 -0.00137,2.172066 0.00188,2.180352 0.00816,0.02122 1.5549303,0.022291 1.5761337,0.00111 z"
     id="path358"
     fill="black" /></svg>
